#!OML:ASF E:/inclinewalkrobotboard/Project1/Captureday1/Session1/subject1.ASF
:FULLY-SPECIFIED
:DEGREES
363
root 0 0 0 3.488433285302706 -5.579253906168432 -5.711616382686757
lowerback 9.128248136170019 2.9624534837269487 3.2200087738120606
upperback 2.0261602559484446 4.035338132533895 -1.0419965669326479
thorax -3.0209627291399226 2.040658149022567 -3.2260381287612403
lowerneck -7.000153420386766 -3.114294638888482 -5.617087479256368
upperneck 2.2559894045387807 -3.6313486733419826 5.256581975726091
head 2.429745877526787 -1.6255131905723799 2.4475140822639476
rclavicle -1.1408965582170176E-14 -1.579312263930907E-16
rhumerus 3.377645518463072 -8.646387712091306 -67.71384580699964
rradius 18.522627696662695
rwrist 56.516199564361926
rhand -6.78782009990384 20.904463735390944
rfingers 7.125019999999924
rthumb 19.068228327458325 -8.759907812996275
lclavicle -1.1437673181792354E-14 3.1824933894576E-15
lhumerus -31.494998710672462 0.6148288129692538 81.71015373238232
lradius 28.67197811592966
lwrist -38.33131570708572
lhand -6.958923810211309 15.695154600987207
lfingers 7.048200884735856
lthumb 18.620695925379067 38.65746129107755
rfemur 7.801792157757681 8.37829652018539 37.17540988014611
rtibia 26.132670936875932
rfoot -20.14622145564663 -4.808407322880312
rtoes 6.304246080544875
lfemur -23.52918860261785 3.4834834492921 -11.572141748577057
ltibia 70.93438553428388
lfoot 4.689026393520555 -12.436834336166392
ltoes -11.672305073437453
364
root 0 0 0 5.47266661567507 4.453250375229299 -6.336985881665061
lowerback 10.376451333420297 3.117437750686116 2.682965638470592
upperback 2.3603834499127956 4.163664430988899 -1.2848629608289721
thorax -3.3594014039455518 2.1132101192747075 -3.19012904733704
lowerneck -7.012909507234088 -3.67893554227456 -5.727773677919871
upperneck 2.883896620499778 -4.3116832366641695 5.00908422779749
head 2.746478991699756 -1.9520727739944501 2.355373468272561
rclavicle -1.1273682691672658E-14 -1.2527261561245182E-16
rhumerus 3.3923348791959023 -8.80769397812591 -67.79370015310236
rradius 18.559162205318543
rwrist 56.598968082918844
rhand -6.750490394117865 21.033465040037104
rfingers 7.125019999999923
rthumb 19.106606192802158 -8.629077980804666
lclavicle -1.0810341114216713E-14 3.4775880049271504E-15
lhumerus -31.187093197558248 0.9547745913314287 81.50980316383757
lradius 28.682503349968023
lwrist -38.26048747353089
lhand -7.452135516400372 15.68603244737733
lfingers 7.050678204592812
lthumb 18.156689092047564 39.279858111570874
rfemur 6.567007500779049 8.15513794823231 36.99684754651745
rtibia 26.445089497084204
rfoot -19.481544921491775 -4.820133380823485
rtoes 6.963608306477218
lfemur -24.61085957125746 3.4953572913185598 -11.553094312623823
ltibia 70.88997922569463
lfoot 4.469848526900849 -12.02529747584298
ltoes -10.745104210049806
365
root 0 0 0 6.896381820758947 11.225617877224678 -6.916098606500929
lowerback 10.949445483140192 3.1732913703495 2.283411736180098
upperback 2.451090287389342 4.19161035720474 -1.461570700770011
thorax -3.574785151720757 2.1343949592058147 -3.150714761740725
lowerneck -7.101119281863563 -4.045494612373042 -5.8966001863543
upperneck 3.29544510209171 -4.750305183175018 4.868060211031859
head 2.97309323745384 -2.1672274487909813 2.3187184114422954
rclavicle -1.11332236964562E-14 -7.472948919519925E-17
rhumerus 3.7135171520266024 -9.22696265153949 -67.71433197334466
rradius 18.55470347336977
rwrist 56.72774472403694
rhand -6.7663119721748295 21.170657766728798
rfingers 7.125019999999921
rthumb 19.09385929253418 -8.493443119428612
lclavicle -1.025850814945165E-14 3.695431339921496E-15
lhumerus -30.66840476995398 1.4603056370443603 81.14137759417602
lradius 28.784846030216904
lwrist -38.173647404075865
lhand -7.917780402256641 15.638309661675668
lfingers 7.052955493279976
lthumb 17.717938566516697 40.09134856353894
rfemur 5.017049552006494 7.947640998493364 36.78773716237542
rtibia 26.664332703093663
rfoot -18.9736273847585 -4.9521061800201185
rtoes 7.888913528350857
lfemur -25.157490519155758 3.454744178748965 -11.667956554212294
ltibia 70.5185986299752
lfoot 4.291128176727296 -11.738719052003784
ltoes -9.982526758034822
366
root 0 0 0 7.705379027712993 14.63791234444739 -7.497044206826338
lowerback 11.103337874801479 3.163447135943326 2.032587319085427
upperback 2.403043199911182 4.155009178329924 -1.5379777039960807
thorax -3.7030826894528115 2.1206500029940614 -3.086036684681459
lowerneck -7.277384101618987 -4.255586664734444 -6.1047872360653495
upperneck 3.3850616484948137 -4.993942408225534 4.860168421931549
head 3.0791379478011254 -2.2911448725993764 2.337902823903336
rclavicle -1.1039319252365946E-14 -3.5079562719768957E-17
rhumerus 4.182000194937622 -9.739420721571596 -67.52628791147143
rradius 18.524696205143243
rwrist 56.855463240446156
rhand -6.823808807082619 21.274914213447968
rfingers 7.12501999999992
rthumb 19.04020401596167 -8.39339948316518
lclavicle -9.947406662209077E-15 3.8324082123105316E-15
lhumerus -30.112757345234883 2.012197165053017 80.7171561544765
lradius 29.069916243680026
lwrist -38.04467167763066
lhand -8.229607215233479 15.576777241783061
lfingers 7.05483700604935
lthumb 17.424789965824424 41.01185462947809
rfemur 3.4829342676779973 7.818361900159715 36.59746475153958
rtibia 26.67611481123205
rfoot -18.735433991642488 -5.180931190891288
rtoes 8.933939100050456
lfemur -25.415411964077506 3.3824751067581396 -11.809236281124003
ltibia 69.99633330632572
lfoot 4.133282665372482 -11.485346498590001
ltoes -9.324256514880004
367
root 0 0 0 8.218406494556994 16.638769696159624 -8.102046327564876
lowerback 11.102269312954903 3.1257107609246146 1.848471623964028
upperback 2.30182718366989 4.089806219000704 -1.5703904255639674
thorax -3.8009771338899077 2.0914219395487037 -3.011586622608663
lowerneck -7.493429841877379 -4.403511350931443 -6.326654303324904
upperneck 3.2810714044945275 -5.159274828574689 4.908995850479197
head 3.1172504228169116 -2.378198825941323 2.3794368279818823
rclavicle -1.0996399553656707E-14 -8.34994781633681E-18
rhumerus 4.675924064214133 -10.232499596107493 -67.28281512420897
rradius 18.50004655431377
rwrist 56.95198002356781
rhand -6.902005439822908 21.34147444747238
rfingers 7.12501999999992
rthumb 18.965985422503543 -8.332269806625959
lclavicle -9.80367377949364E-15 3.936516107308541E-15
lhumerus -29.58950572011083 2.5700113538451923 80.27965989852004
lradius 29.418513084983147
lwrist -37.936815540272946
lhand -8.379103200662984 15.499478748403634
lfingers 7.056225162145696
lthumb 17.28536460503959 41.98285834389511
rfemur 2.356409037308815 7.7917549023772175 36.48271575384176
rtibia 26.453299840283098
rfoot -18.78820933578041 -5.431629426622196
rtoes 9.80352959402316
lfemur -25.716331367382644 3.309874140457705 -11.872206069858297
ltibia 69.48107278576566
lfoot 3.915182837481181 -11.143230139251742
ltoes -8.721365867731691
